<svg width="192" height="192" viewBox="0 0 192 192" fill="none" xmlns="http://www.w3.org/2000/svg">
  <defs>
    <linearGradient id="iconGradient" x1="0%" y1="0%" x2="100%" y2="100%">
      <stop offset="0%" stopColor="#142850" />
      <stop offset="50%" stopColor="#1e3a5f" />
      <stop offset="100%" stopColor="#0f1b2e" />
    </linearGradient>
    <linearGradient id="iconAccentGradient" x1="0%" y1="0%" x2="100%" y2="100%">
      <stop offset="0%" stopColor="#0ea5e9" />
      <stop offset="100%" stopColor="#0284c7" />
    </linearGradient>
  </defs>
  
  <rect width="192" height="192" rx="48" fill="url(#iconGradient)" />
  
  <rect x="12" y="12" width="168" height="168" rx="36" fill="none" stroke="url(#iconAccentGradient)" stroke-width="2" opacity="0.4" />
  
  <!-- Icon B -->
  <path d="M54 60 L54 132 L90 132 C99 132 105 125.5 105 117 C105 111.6 102.6 106.8 98.4 104.4 C102.6 102 105 97.2 105 91.8 C105 83.5 99 77 90 77 L54 77 Z M67.2 87 L85.2 87 C88.8 87 91.2 89.4 91.2 92.4 C91.2 95.4 88.8 97.8 85.2 97.8 L67.2 97.8 Z M67.2 108 L90 108 C93.6 108 96 110.4 96 113.4 C96 116.4 93.6 118.8 90 118.8 L67.2 118.8 Z" fill="#ffffff" />
  
  <!-- Icon L -->
  <path d="M114 60 L114 117 L144 117 L144 132 L100.8 132 L100.8 60 Z" fill="#ffffff" />
  
  <!-- Accent dots -->
  <circle cx="150" cy="54" r="4.8" fill="url(#iconAccentGradient)" opacity="0.7" />
  <circle cx="42" cy="138" r="3.6" fill="url(#iconAccentGradient)" opacity="0.5" />
</svg>
